<svg width="115" height="29" viewBox="0 0 115 29" fill="none" xmlns="http://www.w3.org/2000/svg">
<path d="M13.5522 28.7936C11.5814 28.7936 9.76425 28.4609 8.10058 27.7954C6.46259 27.1044 5.02929 26.1446 3.80076 24.9161C2.59782 23.6619 1.66363 22.1903 0.998179 20.5011C0.332722 18.7862 0 16.9179 0 14.8959C0 12.9252 0.345523 11.1079 1.03657 9.44431C1.72762 7.75508 2.7002 6.2962 3.95432 5.06768C5.20844 3.81353 6.68009 2.84097 8.36932 2.14992C10.0585 1.45888 11.8886 1.11335 13.8593 1.11335C15.1391 1.11335 16.3931 1.29254 17.6217 1.65083C18.8758 1.98358 20.0148 2.48267 21.0385 3.1481C22.0879 3.81353 22.9837 4.60698 23.7259 5.52837L20.1171 9.52109C19.5028 8.90683 18.863 8.38212 18.1975 7.94704C17.5577 7.48634 16.8667 7.14082 16.1244 6.91047C15.4078 6.6545 14.64 6.52655 13.8209 6.52655C12.7204 6.52655 11.6838 6.73128 10.7112 7.14082C9.76425 7.55035 8.93242 8.12622 8.21575 8.86843C7.49916 9.5851 6.92328 10.4681 6.48813 11.5174C6.07867 12.5412 5.87387 13.6801 5.87387 14.9343C5.87387 16.214 6.07867 17.3786 6.48813 18.4279C6.89767 19.4517 7.47354 20.3347 8.21575 21.0769C8.95803 21.7936 9.84104 22.3566 10.8648 22.7662C11.9142 23.1501 13.0659 23.342 14.32 23.342C15.1391 23.342 15.9324 23.2268 16.7003 22.9965C17.4681 22.7662 18.172 22.4462 18.8118 22.0367C19.4773 21.6272 20.0659 21.1537 20.5778 20.6162L23.3804 25.108C22.7661 25.7991 21.9344 26.4261 20.8849 26.9892C19.8612 27.5523 18.7095 28.0002 17.4297 28.3329C16.15 28.64 14.8575 28.7936 13.5522 28.7936ZM27.4673 28.4097V0H32.8421V12.2469L31.7672 12.7076C32.0487 11.7862 32.5478 10.9543 33.2645 10.2121C34.0067 9.44431 34.8897 8.83004 35.9135 8.36934C36.9372 7.90865 38.0122 7.6783 39.1384 7.6783C40.674 7.6783 41.9537 7.98543 42.9775 8.59969C44.0268 9.21396 44.8074 10.1481 45.3194 11.4023C45.8569 12.6308 46.1256 14.1537 46.1256 15.9709V28.4097H40.674V16.3932C40.674 15.4718 40.546 14.7039 40.2901 14.0897C40.0341 13.4754 39.6374 13.0275 39.1 12.746C38.588 12.4388 37.9482 12.3109 37.1804 12.3621C36.5661 12.3621 35.9902 12.4645 35.4528 12.6692C34.9408 12.8484 34.493 13.1171 34.1091 13.4754C33.7507 13.8337 33.4564 14.2432 33.2261 14.7039C33.0213 15.1646 32.9189 15.6637 32.9189 16.2012V28.4097H30.2315C29.6428 28.4097 29.1182 28.4097 28.6575 28.4097C28.1968 28.4097 27.8 28.4097 27.4673 28.4097ZM60.9858 28.7936C58.7847 28.7936 56.8651 28.3457 55.227 27.4499C53.589 26.5541 52.3093 25.3256 51.3879 23.7643C50.4665 22.2031 50.0058 20.4115 50.0058 18.3895C50.0058 16.8282 50.2618 15.395 50.7736 14.0897C51.2856 12.7844 52.0021 11.6582 52.9235 10.7112C53.8449 9.73866 54.9327 8.99638 56.1868 8.48452C57.4666 7.94704 58.8487 7.6783 60.3331 7.6783C61.7152 7.6783 62.995 7.93426 64.1722 8.44613C65.3496 8.93244 66.3606 9.63626 67.2052 10.5577C68.0751 11.4534 68.741 12.5156 69.2017 13.7442C69.6624 14.9727 69.867 16.3164 69.816 17.7753L69.7776 19.4645H53.461L52.578 16.1244H65.2856L64.6713 16.8155V15.9709C64.6202 15.2798 64.3898 14.6528 63.9803 14.0897C63.5964 13.5266 63.0973 13.0915 62.483 12.7844C61.8688 12.4772 61.1777 12.3237 60.4099 12.3237C59.2838 12.3237 58.324 12.5412 57.5305 12.9763C56.7627 13.4114 56.174 14.0513 55.7645 14.8959C55.3551 15.7405 55.1503 16.7643 55.1503 17.9672C55.1503 19.1957 55.4062 20.2579 55.9181 21.1537C56.4556 22.0495 57.1978 22.7534 58.1448 23.2652C59.1174 23.7516 60.2563 23.9947 61.5616 23.9947C62.4575 23.9947 63.2765 23.8539 64.0187 23.5724C64.761 23.2909 65.5543 22.8045 66.399 22.1135L69.0098 25.7607C68.2671 26.4261 67.4484 26.9892 66.5525 27.4499C65.6567 27.885 64.7354 28.2177 63.7883 28.4481C62.8414 28.6784 61.9072 28.7936 60.9858 28.7936ZM82.6744 28.7936C80.7297 28.7936 78.9888 28.3329 77.4531 27.4115C75.9175 26.4901 74.7022 25.236 73.8059 23.6492C72.9362 22.0623 72.5006 20.2579 72.5006 18.236C72.5006 16.2396 72.9362 14.448 73.8059 12.8611C74.7022 11.2487 75.9175 9.98179 77.4531 9.06039C78.9888 8.139 80.7297 7.6783 82.6744 7.6783C84.492 7.6783 86.1554 8.01105 87.6653 8.67648C89.1758 9.3419 90.3527 10.2633 91.1973 11.4407L88.2027 15.0495C87.8447 14.5631 87.3965 14.1281 86.859 13.7442C86.3216 13.3346 85.7331 13.0147 85.093 12.7844C84.4788 12.554 83.8394 12.4388 83.1735 12.4388C82.1243 12.4388 81.1904 12.6948 80.3709 13.2067C79.5779 13.693 78.9504 14.3712 78.4897 15.2414C78.029 16.1117 77.7986 17.1098 77.7986 18.236C77.7986 19.3365 78.029 20.3219 78.4897 21.1921C78.9762 22.0367 79.6289 22.7278 80.4477 23.2652C81.2671 23.7771 82.1885 24.0331 83.2119 24.0331C83.8778 24.0331 84.5046 23.9435 85.093 23.7643C85.6822 23.5596 86.2322 23.2652 86.7439 22.8813C87.2813 22.4974 87.7679 22.0367 88.2027 21.4992L91.1589 25.108C90.2891 26.2086 89.0857 27.1044 87.5501 27.7954C86.0144 28.4609 84.3894 28.7936 82.6744 28.7936ZM99.8354 22.3055L98.2229 17.8137L107.821 8.1006H115L99.8354 22.3055ZM94.6525 28.4097V0H100.104V28.4097H94.6525ZM108.397 28.4097L101.102 19.2341L104.941 16.1628L114.962 28.4097H108.397Z" fill="white"/>
<path d="M8.83039 14.507C8.33779 14.0254 8.33779 13.2445 8.83039 12.7629C9.32298 12.2813 10.1216 12.2813 10.6142 12.7629L15.3494 17.4466C15.842 17.9282 15.842 18.7091 15.3494 19.1906C14.8568 19.6723 14.0581 19.6723 13.5656 19.1906L8.83039 14.507Z" fill="#D8D8D8"/>
<mask id="mask0_1_78" style="mask-type:luminance" maskUnits="userSpaceOnUse" x="8" y="12" width="8" height="8">
<path d="M8.83039 14.507C8.33779 14.0254 8.33779 13.2445 8.83039 12.7629C9.32298 12.2813 10.1216 12.2813 10.6142 12.7629L15.3494 17.4466C15.842 17.9282 15.842 18.7091 15.3494 19.1906C14.8568 19.6723 14.0581 19.6723 13.5656 19.1906L8.83039 14.507Z" fill="white"/>
</mask>
<g mask="url(#mask0_1_78)">
<path d="M2.1543 -1.1637V28.4336H32.4267V-1.1637H2.1543Z" fill="#204E9D" fill-opacity="0.79"/>
</g>
<path d="M23.9664 7.83002C24.459 7.34845 25.2576 7.34845 25.7502 7.83002C26.2428 8.31166 26.2428 9.09247 25.7502 9.57411L14.3981 20.6731C13.9055 21.1547 13.1068 21.1547 12.6143 20.6731L7.56891 15.7402C7.07631 15.2586 7.07631 14.4777 7.56891 13.9962C8.06144 13.5145 8.86012 13.5145 9.35272 13.9962L13.5062 18.057L23.9664 7.83002Z" fill="black"/>
<mask id="mask1_1_78" style="mask-type:luminance" maskUnits="userSpaceOnUse" x="7" y="7" width="20" height="15">
<path d="M23.9664 7.83002C24.459 7.34845 25.2576 7.34845 25.7502 7.83002C26.2428 8.31166 26.2428 9.09247 25.7502 9.57411L14.3981 20.6731C13.9055 21.1547 13.1068 21.1547 12.6143 20.6731L7.56891 15.7402C7.07631 15.2586 7.07631 14.4777 7.56891 13.9962C8.06144 13.5145 8.86012 13.5145 9.35272 13.9962L13.5062 18.057L23.9664 7.83002Z" fill="white"/>
</mask>
<g mask="url(#mask1_1_78)">
<path d="M2.15405 -1.1637V28.4336H32.4264V-1.1637H2.15405Z" fill="white"/>
</g>
</svg>
