<svg width="85" height="44" viewBox="0 0 85 44" fill="none" xmlns="http://www.w3.org/2000/svg">
<g filter="url(#filter0_d_1103_1686)">
<path d="M16.9492 15.793L21.8564 15.7344C21.7197 17.3555 21.1973 18.7373 20.2891 19.8799C19.3906 21.0127 18.2529 21.8721 16.876 22.458C15.5088 23.0439 14.0488 23.3223 12.4961 23.293C11.0215 23.2637 9.78125 22.9609 8.77539 22.3848C7.76953 21.7988 6.97852 21.0176 6.40234 20.041C5.82617 19.0547 5.44531 17.9512 5.25977 16.7305C5.07422 15.5 5.06445 14.2305 5.23047 12.9219L5.3916 11.7646C5.58691 10.4072 5.94824 9.10352 6.47559 7.85352C7.00293 6.59375 7.69141 5.4707 8.54102 4.48438C9.40039 3.49805 10.4209 2.72656 11.6025 2.16992C12.7842 1.60352 14.1221 1.33496 15.6162 1.36426C17.208 1.39355 18.5605 1.72559 19.6738 2.36035C20.7969 2.99512 21.666 3.88379 22.2812 5.02637C22.9062 6.16895 23.2578 7.5166 23.3359 9.06934L18.3408 9.05469C18.3701 8.30273 18.2969 7.6582 18.1211 7.12109C17.9453 6.58398 17.6328 6.16895 17.1836 5.87598C16.7441 5.57324 16.124 5.40723 15.3232 5.37793C14.4541 5.34863 13.7266 5.5293 13.1406 5.91992C12.5645 6.30078 12.0957 6.81348 11.7344 7.45801C11.373 8.10254 11.0947 8.80078 10.8994 9.55273C10.7139 10.3047 10.5723 11.0322 10.4746 11.7354L10.3281 12.9365C10.2598 13.5127 10.1963 14.1621 10.1377 14.8848C10.0791 15.5977 10.1035 16.2861 10.2109 16.9502C10.3184 17.6045 10.5674 18.1514 10.958 18.5908C11.3486 19.0303 11.959 19.2646 12.7891 19.2939C13.5703 19.3135 14.249 19.1914 14.8252 18.9277C15.4014 18.6543 15.8652 18.2539 16.2168 17.7266C16.5781 17.1895 16.8223 16.5449 16.9492 15.793ZM31.9053 0.5L28.0088 23H23.1748L27.0713 0.5H31.9053ZM40.6064 18.8984L42.6426 7.15039H47.4766L44.7227 23H40.2256L40.6064 18.8984ZM41.5146 15.9102L42.7598 15.8809C42.6621 16.7793 42.4668 17.6729 42.1738 18.5615C41.8809 19.4502 41.4756 20.2559 40.958 20.9785C40.4404 21.7012 39.7959 22.2773 39.0244 22.707C38.2627 23.127 37.3594 23.3271 36.3145 23.3076C35.4453 23.2881 34.708 23.1221 34.1025 22.8096C33.5068 22.4971 33.0283 22.0723 32.667 21.5352C32.3057 20.9883 32.0615 20.3633 31.9346 19.6602C31.8076 18.957 31.7832 18.2051 31.8613 17.4043L33.5752 7.15039H38.3945L36.6514 17.4629C36.6221 17.7461 36.6221 18.0098 36.6514 18.2539C36.6904 18.498 36.7637 18.7129 36.8711 18.8984C36.9883 19.0742 37.1494 19.2158 37.3545 19.3232C37.5596 19.4307 37.8232 19.4893 38.1455 19.499C38.8779 19.5283 39.4736 19.377 39.9326 19.0449C40.3916 18.7031 40.7432 18.2539 40.9873 17.6973C41.2412 17.1406 41.417 16.5449 41.5146 15.9102ZM51.2998 0.5H56.1191L52.8379 19.3672L51.7393 23H47.3887L51.2998 0.5ZM63.0186 14.8115L62.9893 15.1338C62.8721 16.1201 62.6572 17.1064 62.3447 18.0928C62.0322 19.0693 61.5977 19.958 61.041 20.7588C60.4941 21.5498 59.8008 22.1797 58.9609 22.6484C58.1309 23.1172 57.1396 23.3369 55.9873 23.3076C54.9912 23.2783 54.1758 23 53.541 22.4727C52.9062 21.9453 52.418 21.2764 52.0762 20.4658C51.7344 19.6455 51.5 18.7812 51.373 17.873C51.2559 16.9551 51.207 16.0957 51.2266 15.2949L51.2559 14.9141C51.4121 14.0645 51.6611 13.166 52.0029 12.2188C52.3545 11.2715 52.8086 10.3877 53.3652 9.56738C53.9219 8.7373 54.5908 8.06836 55.3721 7.56055C56.1533 7.05273 57.0518 6.81348 58.0674 6.84277C59.1709 6.8623 60.0693 7.11621 60.7627 7.60449C61.4561 8.08301 61.9834 8.71289 62.3447 9.49414C62.7061 10.2754 62.9307 11.1299 63.0186 12.0576C63.1162 12.9854 63.1162 13.9033 63.0186 14.8115ZM58.1846 15.1191L58.1992 14.7969C58.2383 14.4355 58.2676 14.0205 58.2871 13.5518C58.3164 13.083 58.2969 12.6338 58.2285 12.2041C58.1602 11.7646 57.999 11.3984 57.7451 11.1055C57.4912 10.8125 57.1006 10.6562 56.5732 10.6367C55.9971 10.6074 55.5088 10.7002 55.1084 10.915C54.708 11.1299 54.3809 11.4229 54.127 11.7939C53.873 12.165 53.6777 12.585 53.541 13.0537C53.4043 13.5225 53.3066 14.001 53.248 14.4893L53.1162 15.6611C53.0576 16.2275 53.0381 16.8037 53.0576 17.3896C53.0869 17.9756 53.248 18.4688 53.541 18.8691C53.834 19.2695 54.3516 19.4795 55.0938 19.499C55.6992 19.5186 56.1924 19.3916 56.5732 19.1182C56.9541 18.8447 57.252 18.4883 57.4668 18.0488C57.6816 17.5996 57.8379 17.1162 57.9355 16.5986C58.043 16.0811 58.126 15.5879 58.1846 15.1191ZM71.5732 23.293C70.4795 23.2734 69.4834 23.0732 68.585 22.6924C67.6865 22.3018 66.9248 21.7646 66.2998 21.0811C65.6748 20.3975 65.2109 19.5967 64.9082 18.6787C64.6152 17.751 64.5078 16.7402 64.5859 15.6465L64.6445 15.0752C64.7617 13.9229 65.0352 12.8486 65.4648 11.8525C65.8945 10.8467 66.4707 9.96777 67.1934 9.21582C67.916 8.4541 68.7656 7.86328 69.7422 7.44336C70.7285 7.02344 71.832 6.82812 73.0527 6.85742C74.1562 6.87695 75.1084 7.09668 75.9092 7.5166C76.7197 7.93652 77.3789 8.50781 77.8867 9.23047C78.3945 9.94336 78.7461 10.7637 78.9414 11.6914C79.1465 12.6094 79.1953 13.5859 79.0879 14.6211L78.8096 16.6279H66.2119L66.71 13.5371L74.4736 13.5518L74.5615 13.127C74.6299 12.668 74.6104 12.2529 74.5029 11.8818C74.3955 11.5107 74.1953 11.2178 73.9023 11.0029C73.6094 10.7783 73.2139 10.6562 72.7158 10.6367C72.1104 10.627 71.6074 10.7588 71.207 11.0322C70.8164 11.3057 70.499 11.667 70.2549 12.1162C70.0205 12.5654 69.8398 13.0537 69.7129 13.5811C69.5859 14.0986 69.4932 14.5967 69.4346 15.0752L69.376 15.6318C69.3369 16.1104 69.3516 16.5742 69.4199 17.0234C69.4883 17.4727 69.625 17.8779 69.8301 18.2393C70.0449 18.6006 70.333 18.8936 70.6943 19.1182C71.0557 19.333 71.5098 19.4502 72.0566 19.4697C72.7891 19.4893 73.4727 19.3525 74.1074 19.0596C74.7422 18.7666 75.3135 18.3662 75.8213 17.8584L77.8281 20.5244C77.3887 21.1885 76.8223 21.7256 76.1289 22.1357C75.4355 22.5361 74.6885 22.8291 73.8877 23.0146C73.0967 23.21 72.3252 23.3027 71.5732 23.293Z" fill="#F1F5F9"/>
</g>
<g filter="url(#filter1_d_1103_1686)">
<path d="M30.6875 28.3613L27.5469 35H25.3262L29.8496 26.4688H31.2676L30.6875 28.3613ZM31.2266 35L30.3594 28.1562L30.4062 26.4688H31.7422L33.3184 35H31.2266ZM31.6836 31.8184L31.4023 33.4062H27.1426L27.4238 31.8184H31.6836ZM37.666 33.4355L38.9551 26H40.8945L39.3359 35H37.6074L37.666 33.4355ZM34.1621 31.9531L34.1738 31.8242C34.2207 31.4375 34.3086 31.0469 34.4375 30.6523C34.5664 30.2578 34.7422 29.8984 34.9648 29.5742C35.1914 29.25 35.4707 28.9922 35.8027 28.8008C36.1387 28.6094 36.5371 28.5215 36.998 28.5371C37.3887 28.5527 37.709 28.6699 37.959 28.8887C38.209 29.1074 38.4023 29.3848 38.5391 29.7207C38.6758 30.0527 38.7695 30.4023 38.8203 30.7695C38.8711 31.1367 38.8926 31.4746 38.8848 31.7832L38.8672 31.9414C38.8086 32.2734 38.707 32.627 38.5625 33.002C38.4219 33.373 38.2363 33.7227 38.0059 34.0508C37.7793 34.375 37.5098 34.6387 37.1973 34.8418C36.8848 35.041 36.5312 35.1348 36.1367 35.123C35.707 35.1113 35.3555 35.0078 35.082 34.8125C34.8086 34.6172 34.5977 34.3633 34.4492 34.0508C34.3047 33.7383 34.2109 33.3984 34.168 33.0312C34.1289 32.6641 34.127 32.3047 34.1621 31.9531ZM36.1074 31.8184L36.0957 31.9414C36.084 32.082 36.0742 32.2441 36.0664 32.4277C36.0586 32.6113 36.0684 32.791 36.0957 32.9668C36.127 33.1426 36.1914 33.291 36.2891 33.4121C36.3906 33.5293 36.541 33.5938 36.7402 33.6055C37.0293 33.6172 37.2656 33.5488 37.4492 33.4004C37.6367 33.252 37.7793 33.0625 37.877 32.832C37.9785 32.5977 38.043 32.3574 38.0703 32.1113L38.123 31.6426C38.1426 31.4824 38.1523 31.3125 38.1523 31.1328C38.1562 30.9531 38.1367 30.7832 38.0938 30.623C38.0508 30.4629 37.9727 30.3301 37.8594 30.2246C37.7461 30.1191 37.582 30.0645 37.3672 30.0605C37.1406 30.0527 36.9492 30.1055 36.793 30.2188C36.6406 30.332 36.5176 30.4805 36.4238 30.6641C36.334 30.8438 36.2637 31.0371 36.2129 31.2441C36.166 31.4473 36.1309 31.6387 36.1074 31.8184ZM42.9043 33.5703L44.8672 28.6602H46.9473L43.9414 35H42.7168L42.9043 33.5703ZM42.9512 28.6602L43.373 33.7402L43.1621 35H41.9844L40.9648 28.6602H42.9512ZM49.4785 35.1172C49.041 35.1094 48.6426 35.0293 48.2832 34.877C47.9238 34.7207 47.6191 34.5059 47.3691 34.2324C47.1191 33.959 46.9336 33.6387 46.8125 33.2715C46.6953 32.9004 46.6523 32.4961 46.6836 32.0586L46.707 31.8301C46.7539 31.3691 46.8633 30.9395 47.0352 30.541C47.207 30.1387 47.4375 29.7871 47.7266 29.4863C48.0156 29.1816 48.3555 28.9453 48.7461 28.7773C49.1406 28.6094 49.582 28.5312 50.0703 28.543C50.5117 28.5508 50.8926 28.6387 51.2129 28.8066C51.5371 28.9746 51.8008 29.2031 52.0039 29.4922C52.207 29.7773 52.3477 30.1055 52.4258 30.4766C52.5078 30.8438 52.5273 31.2344 52.4844 31.6484L52.373 32.4512H47.334L47.5332 31.2148L50.6387 31.2207L50.6738 31.0508C50.7012 30.8672 50.6934 30.7012 50.6504 30.5527C50.6074 30.4043 50.5273 30.2871 50.4102 30.2012C50.293 30.1113 50.1348 30.0625 49.9355 30.0547C49.6934 30.0508 49.4922 30.1035 49.332 30.2129C49.1758 30.3223 49.0488 30.4668 48.9512 30.6465C48.8574 30.8262 48.7852 31.0215 48.7344 31.2324C48.6836 31.4395 48.6465 31.6387 48.623 31.8301L48.5996 32.0527C48.584 32.2441 48.5898 32.4297 48.6172 32.6094C48.6445 32.7891 48.6992 32.9512 48.7812 33.0957C48.8672 33.2402 48.9824 33.3574 49.127 33.4473C49.2715 33.5332 49.4531 33.5801 49.6719 33.5879C49.9648 33.5957 50.2383 33.541 50.4922 33.4238C50.7461 33.3066 50.9746 33.1465 51.1777 32.9434L51.9805 34.0098C51.8047 34.2754 51.5781 34.4902 51.3008 34.6543C51.0234 34.8145 50.7246 34.9316 50.4043 35.0059C50.0879 35.084 49.7793 35.1211 49.4785 35.1172ZM55.4316 30.1191L54.582 35H52.6543L53.7559 28.6602H55.5547L55.4316 30.1191ZM54.9512 31.6133L54.5527 31.6367C54.5879 31.2578 54.666 30.8828 54.7871 30.5117C54.9082 30.1367 55.0762 29.7988 55.291 29.498C55.5098 29.1973 55.7793 28.9609 56.0996 28.7891C56.4238 28.6133 56.8047 28.5293 57.2422 28.5371C57.5977 28.5488 57.8887 28.625 58.1152 28.7656C58.3457 28.9062 58.5215 29.0938 58.6426 29.3281C58.7637 29.5586 58.8398 29.8203 58.8711 30.1133C58.9062 30.4023 58.9082 30.7012 58.877 31.0098L58.209 35H56.2695L56.9434 30.9922C56.9629 30.8086 56.957 30.6465 56.9258 30.5059C56.8984 30.3652 56.832 30.2559 56.7266 30.1777C56.625 30.0996 56.4727 30.0586 56.2695 30.0547C56.043 30.0508 55.8516 30.0938 55.6953 30.1836C55.543 30.2734 55.416 30.3965 55.3145 30.5527C55.2168 30.7051 55.1387 30.875 55.0801 31.0625C55.0254 31.2461 54.9824 31.4297 54.9512 31.6133ZM63.6172 28.6602L63.377 30.0312H59.6621L59.9023 28.6602H63.6172ZM60.9512 27.084H62.8789L61.8711 32.9434C61.8555 33.0801 61.8555 33.1934 61.8711 33.2832C61.8867 33.3691 61.9277 33.4355 61.9941 33.4824C62.0645 33.5254 62.1719 33.5508 62.3164 33.5586C62.3984 33.5625 62.4805 33.5605 62.5625 33.5527C62.6445 33.5449 62.7266 33.5371 62.8086 33.5293L62.6738 34.959C62.5059 35.0137 62.334 35.0527 62.1582 35.0762C61.9863 35.0996 61.8105 35.1113 61.6309 35.1113C61.2324 35.1035 60.8984 35.0234 60.6289 34.8711C60.3633 34.7148 60.1699 34.4941 60.0488 34.209C59.9316 33.9199 59.8906 33.5762 59.9258 33.1777L60.9512 27.084ZM67.1504 33.3594L67.9648 28.6602H69.8984L68.7969 35H66.998L67.1504 33.3594ZM67.5137 32.1641L68.0117 32.1523C67.9727 32.5117 67.8945 32.8691 67.7773 33.2246C67.6602 33.5801 67.498 33.9023 67.291 34.1914C67.084 34.4805 66.8262 34.7109 66.5176 34.8828C66.2129 35.0508 65.8516 35.1309 65.4336 35.123C65.0859 35.1152 64.791 35.0488 64.5488 34.9238C64.3105 34.7988 64.1191 34.6289 63.9746 34.4141C63.8301 34.1953 63.7324 33.9453 63.6816 33.6641C63.6309 33.3828 63.6211 33.082 63.6523 32.7617L64.3379 28.6602H66.2656L65.5684 32.7852C65.5566 32.8984 65.5566 33.0039 65.5684 33.1016C65.584 33.1992 65.6133 33.2852 65.6562 33.3594C65.7031 33.4297 65.7676 33.4863 65.8496 33.5293C65.9316 33.5723 66.0371 33.5957 66.166 33.5996C66.459 33.6113 66.6973 33.5508 66.8809 33.418C67.0645 33.2812 67.2051 33.1016 67.3027 32.8789C67.4043 32.6562 67.4746 32.418 67.5137 32.1641ZM72.5996 30.3359L71.791 35H69.8633L70.9648 28.6602H72.7578L72.5996 30.3359ZM74.6738 28.6074L74.4219 30.4473C74.3203 30.4316 74.2188 30.418 74.1172 30.4062C74.0156 30.3945 73.9121 30.3867 73.8066 30.3828C73.5918 30.3789 73.3965 30.4043 73.2207 30.459C73.0488 30.5098 72.8984 30.5898 72.7695 30.6992C72.6445 30.8047 72.541 30.9375 72.459 31.0977C72.377 31.2578 72.3164 31.4434 72.2773 31.6543L71.9551 31.4199C71.9941 31.123 72.0566 30.8086 72.1426 30.4766C72.2324 30.1406 72.3574 29.8242 72.5176 29.5273C72.6777 29.2305 72.8848 28.9902 73.1387 28.8066C73.3926 28.6191 73.7051 28.5254 74.0762 28.5254C74.1777 28.5254 74.2773 28.5332 74.375 28.5488C74.4727 28.5645 74.5723 28.584 74.6738 28.6074ZM77.2871 35.1172C76.8496 35.1094 76.4512 35.0293 76.0918 34.877C75.7324 34.7207 75.4277 34.5059 75.1777 34.2324C74.9277 33.959 74.7422 33.6387 74.6211 33.2715C74.5039 32.9004 74.4609 32.4961 74.4922 32.0586L74.5156 31.8301C74.5625 31.3691 74.6719 30.9395 74.8438 30.541C75.0156 30.1387 75.2461 29.7871 75.5352 29.4863C75.8242 29.1816 76.1641 28.9453 76.5547 28.7773C76.9492 28.6094 77.3906 28.5312 77.8789 28.543C78.3203 28.5508 78.7012 28.6387 79.0215 28.8066C79.3457 28.9746 79.6094 29.2031 79.8125 29.4922C80.0156 29.7773 80.1562 30.1055 80.2344 30.4766C80.3164 30.8438 80.3359 31.2344 80.293 31.6484L80.1816 32.4512H75.1426L75.3418 31.2148L78.4473 31.2207L78.4824 31.0508C78.5098 30.8672 78.502 30.7012 78.459 30.5527C78.416 30.4043 78.3359 30.2871 78.2188 30.2012C78.1016 30.1113 77.9434 30.0625 77.7441 30.0547C77.502 30.0508 77.3008 30.1035 77.1406 30.2129C76.9844 30.3223 76.8574 30.4668 76.7598 30.6465C76.666 30.8262 76.5938 31.0215 76.543 31.2324C76.4922 31.4395 76.4551 31.6387 76.4316 31.8301L76.4082 32.0527C76.3926 32.2441 76.3984 32.4297 76.4258 32.6094C76.4531 32.7891 76.5078 32.9512 76.5898 33.0957C76.6758 33.2402 76.791 33.3574 76.9355 33.4473C77.0801 33.5332 77.2617 33.5801 77.4805 33.5879C77.7734 33.5957 78.0469 33.541 78.3008 33.4238C78.5547 33.3066 78.7832 33.1465 78.9863 32.9434L79.7891 34.0098C79.6133 34.2754 79.3867 34.4902 79.1094 34.6543C78.832 34.8145 78.5332 34.9316 78.2129 35.0059C77.8965 35.084 77.5879 35.1211 77.2871 35.1172Z" fill="#666666"/>
</g>
<defs>
<filter id="filter0_d_1103_1686" x="0.981445" y="0.5" width="82.2676" height="30.8516" filterUnits="userSpaceOnUse" color-interpolation-filters="sRGB">
<feFlood flood-opacity="0" result="BackgroundImageFix"/>
<feColorMatrix in="SourceAlpha" type="matrix" values="0 0 0 0 0 0 0 0 0 0 0 0 0 0 0 0 0 0 127 0" result="hardAlpha"/>
<feOffset dy="4"/>
<feGaussianBlur stdDeviation="2"/>
<feComposite in2="hardAlpha" operator="out"/>
<feColorMatrix type="matrix" values="0 0 0 0 0 0 0 0 0 0 0 0 0 0 0 0 0 0 0.25 0"/>
<feBlend mode="normal" in2="BackgroundImageFix" result="effect1_dropShadow_1103_1686"/>
<feBlend mode="normal" in="SourceGraphic" in2="effect1_dropShadow_1103_1686" result="shape"/>
</filter>
<filter id="filter1_d_1103_1686" x="21.3262" y="26" width="63.0312" height="17.1406" filterUnits="userSpaceOnUse" color-interpolation-filters="sRGB">
<feFlood flood-opacity="0" result="BackgroundImageFix"/>
<feColorMatrix in="SourceAlpha" type="matrix" values="0 0 0 0 0 0 0 0 0 0 0 0 0 0 0 0 0 0 127 0" result="hardAlpha"/>
<feOffset dy="4"/>
<feGaussianBlur stdDeviation="2"/>
<feComposite in2="hardAlpha" operator="out"/>
<feColorMatrix type="matrix" values="0 0 0 0 0 0 0 0 0 0 0 0 0 0 0 0 0 0 0.25 0"/>
<feBlend mode="normal" in2="BackgroundImageFix" result="effect1_dropShadow_1103_1686"/>
<feBlend mode="normal" in="SourceGraphic" in2="effect1_dropShadow_1103_1686" result="shape"/>
</filter>
</defs>
</svg>
